<mxfile host="app.diagrams.net" modified="2024-06-20T19:56:21.419Z" agent="Mozilla/5.0 (Windows NT 10.0; Win64; x64) AppleWebKit/537.36 (KHTML, like Gecko) Chrome/126.0.0.0 Safari/537.36" etag="Pd9UFVv0IspUSWZYc-yo" version="24.4.0" type="github">
  <diagram name="Page-1" id="nqwjHWbEVsg0mSFp-8RI">
    <mxGraphModel dx="1122" dy="-404" grid="1" gridSize="10" guides="1" tooltips="1" connect="1" arrows="1" fold="1" page="1" pageScale="1" pageWidth="850" pageHeight="1100" math="0" shadow="0">
      <root>
        <mxCell id="0" />
        <mxCell id="1" parent="0" />
        <mxCell id="7HoGpTKX7v-v0K9tCKgV-4" value="" style="strokeColor=#dddddd;shadow=1;strokeWidth=1;rounded=1;absoluteArcSize=1;arcSize=2;" vertex="1" parent="1">
          <mxGeometry x="720" y="1353" width="200" height="60" as="geometry" />
        </mxCell>
        <mxCell id="7HoGpTKX7v-v0K9tCKgV-5" value="&lt;font color=&quot;#000000&quot;&gt;SMS Files&lt;/font&gt;&lt;div&gt;Filesystem&lt;/div&gt;" style="editableCssRules=.*;html=1;fontColor=#999999;shape=image;verticalLabelPosition=middle;verticalAlign=middle;labelPosition=right;align=left;spacingLeft=20;part=1;points=[];imageAspect=0;image=data:image/png,iVBORw0KGgoAAAANSUhEUgAAAOEAAADhCAMAAAAJbSJIAAAAkFBMVEX///8AfMIAd8AAesEAdb8AdsAAcr4Acb4AfcP7/v8AgMTR5fLx+PyIud3K4PDF3u/d7Pbm8vnt9vtGmc94sNllpdSexuM+k8yjyeWrzucujMl2r9mSv+AVhMbZ6vW82OxXn9GxzuciiMebv99Xm9BmotM9ls0AaLqtyeRsqtaNvN/d6PO32e2Ctdux0+mXxOJ7kliDAAAL30lEQVR4nNVdiXLiOBANalnG5jRHDE6MiYfJLskS/v/vliOQQEB6snU4r7a2dqtmjJ/VavWthwcHiLrDYvbnaTnOyjxux3FeZuPp5s98kESRi9+3itH7fLLKueCcMaLW7p8dDv/BAs5Dyv6+FcmvpZkUmzTeUTuwuo09UUHZdL7w/bL66DxnjDOSsPvGc/cn88nA9ytrIFr04jDA2J3BBK0Hv0Nek8dMMC1y56UU5ab54rqYtrje4l2SZOPCNwUp+q9Cplggkjx+bKywDlJRk94RPN52fXO5hc7SDL8Dx7x56xiteSX1cp9jw/bjLDDKbwcK06FvVl9YGNqAVxzZW1NEdVtXf96jyLOOb257JGmNA1DJ8c03vYeHgkzvwAvw18QzwY2NHfgdrO3VJO+OuV1+rb2kbv0RHMZWJfQEMfVFcKDpIFUGT/1YcYWlQ+IGWDbyQHBm75C4QTF3r1IfQ3f8dqC2axtuZl+JXlGM3a7i3JiIHkKLX5D8wdLlXixCAwT3IVNG1M6z1/F4OX5Ny3gfdjtGVm+AZe40aqfuCh7ih+l6W3SGl2+dLPovvWV2O8zKUlcEk7gWQeIie5oPZTKXLB7XpfjxHfnaDcEoq2HJ7Oit5pDOiJLZUlwFtvijbXIHLIPK/AI2/tDyaotp/H0libswwx9F5eXLn/UPte7HKvhaSIrta5t+UHETinJe8e0WG3bmyMZm6fxEVFYiSCye1/jV7hudPqywvRWfKtkyjHo1g0rRW+uo34jsmm+DKpuQxMrAWyXro86xLKdVTkLiMzM/3skOAiTqyLsKmwonIU/Nmcy9/TIS2dOnC32fl0TP5Bt0yt03Dp5MPvICS+0lJPow+wrd5U4TBLaUTV9bzbDc/Lv0QmJL4089ItWVUf5qY8fMgxa3E+0f6MYtuKUoYMEtLaLuEnJrCqEQwkZFQ0fTmrFHcCeooQ3xmOopUrve6vM/5oM2SUtLSG3twROWRo/ZA7ZaQsrGltO3UWb8BzKdJaTcen66Y7qSoaNz2hNzEL01Hc/o6egZYdhUc4JcgyCf+H7bChhq2DNkXgk4gE4ixpLRaBlLXJOyje+XrYJII3oR/0YZ3Tn3uIz+Rj368PACb0Nylh8yCzwCxRtWNIlihW7D37qEEWyUCmQJh/PJKv3bmzeofnQEq9JY/bBidWg1Ybt/p27SgQASVNHwZ9WjFhn/ytITLxvSKQM7FlzleW+vShwoVH4TJyjANaSV4kHrn5/KbEy8KuYgQ67ImUxvPcdqogXFI8aQSO74Tm4KO7EGWOrPWG2C4jAs7uxmyn0UHl4CZMiknm83v3fkuKsEuguQodxie74v6v6DAlvMLJVm2KO2xGqwXn6gAqZpSOoZ3tuFx7/KPJ/82GlBmewZT1I5oLbftgrsxJenvBR1OA5iyDK8Q1abPECj+khMZQ9ZRQJpmuCP5BGRUgy8KtTR3aPs4hX/lT1DLeimym6qAPOA+YvsGUD3Sdh3RegnoHCpnOEYeITCrrUJKC8jZ4icqeSwVv0KUDRRvg8TRB9bK5RRYoFIKZP3e64hOfClUKMYYSivTRhCnW6hL4WKqBpSFH5CBeIUeLJQoexarnjIzSDGD4rOW7iOWAAZUmqpfHWoUYNKPwpV5t2dEKhObMw2sl+OfxNy5+cIdUdLB2pl4F5yrEgJOy2Vj5lDXooXlz9CijFy9Q7qNVehQmIKmM5Y15QPC7UPqHp5OPEIzE+h0oPLj7wZUqWAdS/6cPkfATGFEqRYQbwHC3UENFuoDLcj5lCBlXBvoSLOgYBMrg0Uu3Pv8g8B6VL4FydgrSmWu9SqvRfYO9eFuhjdu/xIshtcRKwywL1CRYQLrEzsQy39Njsabr8WYI+gNUNYtse5QkUWEc3LQ/22zpNSSKkwEZi0TiF/uOXYQp0AcorqB1ChOk5KdRFfH53tMAQIunf5Z4gnHID1I1he0rXLj/Towb3I2ya6/FC3M1w/soYUqpN5H1/oIS/FwKM6ghSqa5cfUoGotsECjI6bVBZQSDAEJQvr8Q/+2uV0BUl107fPjvo+H5i2cVuHOoasEdT3ecaiGk794RFU9g2nO6EOY2o7dRalJVxfnx0MJmEK1XF+GDoyYN9nhNiCrgZ9nbCCJEuZjfoENOKOmNO4zf162IuXQgvyPiD1LC0NNI4hdCrCRzUk9up2DqPAzrFgCT4OCR84llPwHIP7KRCxdx18W0OJMjRuA1WjOG7OwM4xItAfhrSNg6mC34GdYxSDoSnEtnHt8Hcgx4CBWh6qvBKOY29YgzADR7kgxiD6LGPAzDf0IEOODOdtUljlAdgAPQSk3nmFJlh5gKVOHzbA9xKuFxGrPCCg1uYB087uy2yxRBkYup4YS6WbxAyqPMD84ZG5LKxJTLDKA8iDBY59Yu5bMrHKA4EEGJFqG+a+sg9MlEHXGwCPcuwKH5Bg13Ei/nAPODDchhaPwEYoIyYXMp8RTYsYBZgoU5tvkMR7GWQEJcqQYhTEiYKUlnFg/rC6+R7pyfUipg9drHA0VQlYB4lJtZxQugaWdlMONoWqIUI/1+pCkRZ1Wh5RNR4O/QOwzCJXfH8TTVbWACXKVG4G4l/IxxvYBNTapDBJ/iBhA+brfmtoaJbC/cE6VqU9uTbRAULXChGDGCK9HZaAtDaFUicDYqicSWURGzVFudGFMfQ5B1YdYOT/yf7+vxBDNFdgA11lgFHeW/OIhWB9zntR+sNymwubtOk8bHqBvjz6Rky6h7Coj+dRsPLOdIUexCZt+hyFsoe0El8+mw8cWhx4vAj58Joyf1ieyIVGVOwY+r6UXFJwo8i1gUOLmfeRknfrnFRnNeJaNILhPfONVHfEgPfZeJfShzv5YVJdnICN3doxbMJs1+VPihSoKmLAUaKuSxXvYHz9tqylTHcjA6UODJsw2XV3LF7MDaZwrDQm8anMDZmNPsj48YpmIsYz4KWQxMwB4t3+22MopiUJwdvZBEoYoZcuqUb6OkWUvL+/g++DDmWGxow0EvB8+986wR+Lmu/hoVzBBPArChpyHGpD48IeH4nu+ujiN7lS2/8Q8ArQuIDwdyoa9IKCPZrgWWgDa1L5hPiN21DntmFihn/cRQAdGhx5gvFKBWkQ3gz0rlM2Xm3Stx59Tdo6BFvmR0nklg15rPTvjMB818XM7oQ4sC3/DAsp7sjKFcNnjFG39wgrhRib0F5WOVrpEbQTwEhYaCsC24Wa378vYWnlPZ6YpZuZulCByndYuqp2yMjK5K0k1yVIqonMVTFhLf5qXKMWuMN0XkJbYcQRUYuVhlPLWKft5RLa85ve+D6GZzLz2l3qE1RPnK6OaO/dEB8bc64Hse4WbFnuPxwcPFRmqLQzetK4J/oMYlbDpMcoA/HMgGVflBUW0Hoz9+jTASC+qqlxkiXU8PYD1jvzznMUSIxrbPjRhFdaQBelXtOzBUkifam2JYYTpmmHnuEgoxZ98+NI5Bt9YS3+Mv1D/kTQRTP+5WguFpRvOiQ7m5xX5ufqnsSr9BcForX+GAHWXLeYtMJq2+/zp1zl037M/ifGebaedZK7NEfDj03KRPXVO/6Os2LEW3HNHUvRzlbrbdFfJKcV7Y6GncFLb5rmQQ3ZPMGawf0T94IqRMQCfkzbt3doff5/fXJ7OL1EKFL4rHSGCWpHOB6gNKpmcdUh6DoRM9J2zOshdH/zjH5wpQZI+EildTVjuHUI+qp3vlGWZwf+StafhEFdeRdeLyafmznppAhSrxUJfdsqlcTa6zXBh2CZzWWkJtSQbqtFIyDwzM9FgVcYppY4EvdfjP+JLbOxG3nWoHqSZBmaXkYmnj2rmCsMMqOiSnzZvKq1eW6MY71IpT10Z7mRk4MEUu/uCfXXkZhIPd2WC2KwqhOzIN6aNlI+LzB8zkSlw2O3fNlzgxoMJIj6k1g3cEiBaG86zTof5Oj3SvbZK6MkR7s/Wb41Xzp/YPiyzlqCyWjuyfE43RS/QzhvIelv12k7FDw4MP2MMH7GVUNWribzRfOOdm1Eo8589rZevqZlvkOZvY6nmz/zYhg52Xf/A6AjrqRFV6iFAAAAAElFTkSuQmCC;clipPath=inset(0% 91.33% 86.44% 0%);aspect=fixed;" vertex="1" parent="7HoGpTKX7v-v0K9tCKgV-4">
          <mxGeometry width="19.18032786885246" height="30" relative="1" as="geometry">
            <mxPoint x="15" y="15" as="offset" />
          </mxGeometry>
        </mxCell>
        <mxCell id="7HoGpTKX7v-v0K9tCKgV-6" value="" style="sketch=0;pointerEvents=1;shadow=0;dashed=0;html=1;strokeColor=none;fillColor=#505050;labelPosition=center;verticalLabelPosition=bottom;verticalAlign=top;outlineConnect=0;align=center;shape=mxgraph.office.concepts.folders;" vertex="1" parent="7HoGpTKX7v-v0K9tCKgV-4">
          <mxGeometry x="10" y="15" width="32.27" height="30" as="geometry" />
        </mxCell>
        <mxCell id="7HoGpTKX7v-v0K9tCKgV-7" value="" style="edgeStyle=orthogonalEdgeStyle;rounded=0;orthogonalLoop=1;jettySize=auto;html=1;exitX=0;exitY=0.5;exitDx=0;exitDy=0;" edge="1" parent="1" source="7HoGpTKX7v-v0K9tCKgV-9" target="7HoGpTKX7v-v0K9tCKgV-4">
          <mxGeometry y="10" relative="1" as="geometry">
            <mxPoint as="offset" />
          </mxGeometry>
        </mxCell>
        <mxCell id="7HoGpTKX7v-v0K9tCKgV-63" value="HTTPS" style="edgeLabel;html=1;align=center;verticalAlign=middle;resizable=0;points=[];" vertex="1" connectable="0" parent="7HoGpTKX7v-v0K9tCKgV-7">
          <mxGeometry x="-0.1416" y="2" relative="1" as="geometry">
            <mxPoint as="offset" />
          </mxGeometry>
        </mxCell>
        <mxCell id="7HoGpTKX7v-v0K9tCKgV-8" style="edgeStyle=orthogonalEdgeStyle;rounded=0;orthogonalLoop=1;jettySize=auto;html=1;exitX=0.5;exitY=1;exitDx=0;exitDy=0;entryX=0.5;entryY=0;entryDx=0;entryDy=0;" edge="1" parent="1" source="7HoGpTKX7v-v0K9tCKgV-9" target="7HoGpTKX7v-v0K9tCKgV-13">
          <mxGeometry relative="1" as="geometry" />
        </mxCell>
        <mxCell id="7HoGpTKX7v-v0K9tCKgV-62" value="HTTPS" style="edgeLabel;html=1;align=center;verticalAlign=middle;resizable=0;points=[];" vertex="1" connectable="0" parent="7HoGpTKX7v-v0K9tCKgV-8">
          <mxGeometry x="-0.1186" y="-1" relative="1" as="geometry">
            <mxPoint as="offset" />
          </mxGeometry>
        </mxCell>
        <mxCell id="7HoGpTKX7v-v0K9tCKgV-9" value="" style="strokeColor=#dddddd;shadow=1;strokeWidth=1;rounded=1;absoluteArcSize=1;arcSize=2;" vertex="1" parent="1">
          <mxGeometry x="960" y="1230" width="200" height="60.00000000000003" as="geometry" />
        </mxCell>
        <mxCell id="7HoGpTKX7v-v0K9tCKgV-10" value="&lt;font color=&quot;#000000&quot;&gt;Batch SMS&lt;/font&gt;&lt;br&gt;Compute Engine" style="editableCssRules=.*;html=1;fontColor=#999999;shape=image;verticalLabelPosition=middle;verticalAlign=middle;labelPosition=right;align=left;spacingLeft=20;part=1;points=[];imageAspect=0;image=data:image/svg+xml,PHN2ZyB4bWxucz0iaHR0cDovL3d3dy53My5vcmcvMjAwMC9zdmciIHhtbG5zOnY9Imh0dHBzOi8vdmVjdGEuaW8vbmFubyIgd2lkdGg9IjIwIiBoZWlnaHQ9IjIwIiB2aWV3Qm94PSIwIDAgMjAgMjAiPiYjeGE7CTxzdHlsZSB0eXBlPSJ0ZXh0L2NzcyI+JiN4YTsJLnN0MHtmaWxsOiM0Mjg1ZjQ7fSYjeGE7CS5zdDF7ZmlsbDojNjY5ZGY2O30mI3hhOwkuc3Qye2ZpbGw6I2FlY2JmYTt9JiN4YTsJPC9zdHlsZT4mI3hhOwk8cGF0aCBjbGFzcz0ic3QyIiBkPSJNNyA3aDZ2Nkg3eiIvPiYjeGE7CTxwYXRoIGNsYXNzPSJzdDEiIGQ9Ik05IDBoMnY0SDl6TTUgMGgydjRINXptOCAwaDJ2NGgtMnoiLz4mI3hhOwk8cGF0aCBjbGFzcz0ic3QwIiBkPSJNOSAxNmgydjRIOXptLTQgMGgydjRINXptOCAwaDJ2NGgtMnptMy01VjloNHYyem0wIDR2LTJoNHYyem0wLThWNWg0djJ6Ii8+JiN4YTsJPHBhdGggY2xhc3M9InN0MSIgZD0iTTAgMTFWOWg0djJ6bTAgNHYtMmg0djJ6bTAtOFY1aDR2MnoiLz4mI3hhOwk8cGF0aCBjbGFzcz0ic3QyIiBkPSJNMyAzdjE0aDE0VjN6bTEyIDEySDVWNWgxMHoiLz4mI3hhOwk8cGF0aCBjbGFzcz0ic3QxIiBkPSJNMTAgMTBsLTMgM2g2eiIvPiYjeGE7CTxwYXRoIGNsYXNzPSJzdDAiIGQ9Ik0xMyA3bC0zIDMgMyAzeiIvPiYjeGE7PC9zdmc+;" vertex="1" parent="7HoGpTKX7v-v0K9tCKgV-9">
          <mxGeometry width="30" height="30" relative="1" as="geometry">
            <mxPoint x="15" y="15" as="offset" />
          </mxGeometry>
        </mxCell>
        <mxCell id="7HoGpTKX7v-v0K9tCKgV-11" value="" style="dashed=0;outlineConnect=0;html=1;align=center;labelPosition=center;verticalLabelPosition=bottom;verticalAlign=top;shape=mxgraph.weblogos.java" vertex="1" parent="7HoGpTKX7v-v0K9tCKgV-9">
          <mxGeometry x="180" y="22.220000000000027" width="20" height="37.78" as="geometry" />
        </mxCell>
        <mxCell id="7HoGpTKX7v-v0K9tCKgV-12" style="edgeStyle=orthogonalEdgeStyle;rounded=0;orthogonalLoop=1;jettySize=auto;html=1;exitX=1;exitY=0.5;exitDx=0;exitDy=0;entryX=0;entryY=0.5;entryDx=0;entryDy=0;" edge="1" parent="1" source="7HoGpTKX7v-v0K9tCKgV-13" target="7HoGpTKX7v-v0K9tCKgV-23">
          <mxGeometry relative="1" as="geometry" />
        </mxCell>
        <mxCell id="7HoGpTKX7v-v0K9tCKgV-13" value="" style="shape=mxgraph.gcp2.doubleRect;strokeColor=#dddddd;shadow=1;strokeWidth=1;rounded=1;absoluteArcSize=1;arcSize=2;" vertex="1" parent="1">
          <mxGeometry x="960" y="1349" width="200" height="68" as="geometry" />
        </mxCell>
        <mxCell id="7HoGpTKX7v-v0K9tCKgV-14" value="&lt;font color=&quot;#000000&quot;&gt;Topic Messages&lt;/font&gt;&lt;br&gt;Pub/Sub" style="editableCssRules=.*;html=1;fontColor=#999999;shape=image;verticalLabelPosition=middle;verticalAlign=middle;labelPosition=right;align=left;spacingLeft=20;part=1;points=[];imageAspect=0;image=data:image/svg+xml,PHN2ZyB4bWxucz0iaHR0cDovL3d3dy53My5vcmcvMjAwMC9zdmciIHhtbG5zOnY9Imh0dHBzOi8vdmVjdGEuaW8vbmFubyIgd2lkdGg9IjE4LjMxOTk5OTY5NDgyNDIyIiBoZWlnaHQ9IjIwLjAwMDAwMTkwNzM0ODYzMyIgdmlld0JveD0iMCAwIDE4LjMxOTk5OTY5NDgyNDIyIDIwLjAwMDAwMTkwNzM0ODYzMyI+JiN4YTsJPHN0eWxlIHR5cGU9InRleHQvY3NzIj4mI3hhOwkuc3Qwe2ZpbGw6IzY2OWRmNjt9JiN4YTsJLnN0MXtmaWxsOiM0Mjg1ZjQ7fSYjeGE7CS5zdDJ7ZmlsbDojYWVjYmZhO30mI3hhOwk8L3N0eWxlPiYjeGE7CTxkZWZzPiYjeGE7CQk8ZmlsdGVyIGlkPSJBIiB4PSI0LjY0IiB5PSI0LjE5IiB3aWR0aD0iMTQuNzMiIGhlaWdodD0iMTIuNzYiIGZpbHRlclVuaXRzPSJ1c2VyU3BhY2VPblVzZSIgY29sb3ItaW50ZXJwb2xhdGlvbi1maWx0ZXJzPSJzUkdCIj4mI3hhOwkJCTxmZUZsb29kIGZsb29kLWNvbG9yPSIjZmZmIi8+JiN4YTsJCQk8ZmVCbGVuZCBpbj0iU291cmNlR3JhcGhpYyIvPiYjeGE7CQk8L2ZpbHRlcj4mI3hhOwkJPG1hc2sgaWQ9IkIiIHg9IjQuNjQiIHk9IjQuMTkiIHdpZHRoPSIxNC43MyIgaGVpZ2h0PSIxMi43NiIgbWFza1VuaXRzPSJ1c2VyU3BhY2VPblVzZSI+JiN4YTsJCQk8Y2lyY2xlIGN4PSIxMiIgY3k9IjEyLjIzIiByPSIzLjU4IiBmaWx0ZXI9InVybCgjQSkiLz4mI3hhOwkJPC9tYXNrPiYjeGE7CTwvZGVmcz4mI3hhOwk8ZyBjbGFzcz0ic3QwIj4mI3hhOwkJPGNpcmNsZSBjeD0iMTYuMTMiIGN5PSI2LjIxIiByPSIxLjcyIi8+JiN4YTsJCTxjaXJjbGUgY3g9IjIuMTkiIGN5PSI2LjIxIiByPSIxLjcyIi8+JiN4YTsJCTxjaXJjbGUgY3g9IjkuMTYiIGN5PSIxOC4yOCIgcj0iMS43MiIvPiYjeGE7CTwvZz4mI3hhOwk8ZyBtYXNrPSJ1cmwoI0IpIiB0cmFuc2Zvcm09InRyYW5zbGF0ZSgtMi44NCAtMikiPiYjeGE7CQk8cGF0aCB0cmFuc2Zvcm09Im1hdHJpeCguNSAtLjg3IC44NyAuNSAtNC41OSAyMC41MykiIGQ9Ik0xNC42OSAxMC4yMmgxLjU5djguMDRoLTEuNTl6IiBjbGFzcz0ic3QxIi8+JiN4YTsJCTxwYXRoIHRyYW5zZm9ybT0icm90YXRlKDMzMCA4LjUyMyAxNC4yNDQpIiBkPSJNNC40OSAxMy40NWg4LjA0djEuNTlINC40OXoiIGNsYXNzPSJzdDEiLz4mI3hhOwkJPHBhdGggZD0iTTExLjIgNC4xOWgxLjU5djguMDRIMTEuMnoiIGNsYXNzPSJzdDEiLz4mI3hhOwk8L2c+JiN4YTsJPGcgY2xhc3M9InN0MiI+JiN4YTsJCTxjaXJjbGUgY3g9IjkuMTYiIGN5PSIxMC4yMyIgcj0iMi43OCIvPiYjeGE7CQk8Y2lyY2xlIGN4PSIyLjE5IiBjeT0iMTQuMjUiIHI9IjIuMTkiLz4mI3hhOwkJPGNpcmNsZSBjeD0iMTYuMTMiIGN5PSIxNC4yNSIgcj0iMi4xOSIvPiYjeGE7CQk8Y2lyY2xlIGN4PSI5LjE2IiBjeT0iMi4xOSIgcj0iMi4xOSIvPiYjeGE7CTwvZz4mI3hhOzwvc3ZnPg==;" vertex="1" parent="7HoGpTKX7v-v0K9tCKgV-13">
          <mxGeometry width="27" height="30" relative="1" as="geometry">
            <mxPoint x="16" y="15" as="offset" />
          </mxGeometry>
        </mxCell>
        <mxCell id="7HoGpTKX7v-v0K9tCKgV-21" value="" style="edgeStyle=orthogonalEdgeStyle;rounded=0;orthogonalLoop=1;jettySize=auto;html=1;exitX=1;exitY=0.5;exitDx=0;exitDy=0;" edge="1" parent="1" source="7HoGpTKX7v-v0K9tCKgV-23" target="7HoGpTKX7v-v0K9tCKgV-31">
          <mxGeometry x="0.6667" y="-16" relative="1" as="geometry">
            <mxPoint as="offset" />
          </mxGeometry>
        </mxCell>
        <mxCell id="7HoGpTKX7v-v0K9tCKgV-59" value="SMPP" style="edgeLabel;html=1;align=center;verticalAlign=middle;resizable=0;points=[];" vertex="1" connectable="0" parent="7HoGpTKX7v-v0K9tCKgV-21">
          <mxGeometry x="0.2639" y="-1" relative="1" as="geometry">
            <mxPoint as="offset" />
          </mxGeometry>
        </mxCell>
        <mxCell id="7HoGpTKX7v-v0K9tCKgV-23" value="" style="strokeColor=#dddddd;shadow=1;strokeWidth=1;rounded=1;absoluteArcSize=1;arcSize=2;" vertex="1" parent="1">
          <mxGeometry x="1220" y="1353" width="200" height="60.00000000000003" as="geometry" />
        </mxCell>
        <mxCell id="7HoGpTKX7v-v0K9tCKgV-24" value="&lt;font color=&quot;#000000&quot;&gt;Adaptador de &lt;br&gt;Disparos de SMS&lt;/font&gt;&lt;br&gt;Cloud Run" style="editableCssRules=.*;html=1;fontColor=#999999;shape=image;verticalLabelPosition=middle;verticalAlign=middle;labelPosition=right;align=left;spacingLeft=20;part=1;points=[];imageAspect=0;image=data:image/svg+xml,PHN2ZyB4bWxucz0iaHR0cDovL3d3dy53My5vcmcvMjAwMC9zdmciIHhtbG5zOnY9Imh0dHBzOi8vdmVjdGEuaW8vbmFubyIgd2lkdGg9IjM2NS40NjQ5OTY3NzA0MjQ5MyIgaGVpZ2h0PSIzNzkuMjIyOTk0NDYzNTc3OTUiIHZpZXdCb3g9IjAgMCA5Ni42OTU5OTkxNDU1MDc4MSAxMDAuMzM1OTk4NTM1MTU2MjUiPiYjeGE7PHN0eWxlIHR5cGU9InRleHQvY3NzIj4mI3hhOwkuc3Qwe2ZpbGw6IzQyODVmNDt9JiN4YTsJLnN0MXtmaWxsOiNhZWNiZmE7fSYjeGE7PC9zdHlsZT4mI3hhOwk8cGF0aCBjbGFzcz0ic3QwIiBkPSJNMjkuNzk0IDEwMC4zMzZMNDYuOTIgNTAuMTY4aDQ5Ljc3NnpNMCA5OS42NzFsMTIuOTc2LTQ5LjUwMkgyOS4yMkwxNi44OTcgOTIuMDU0eiIvPiYjeGE7CTxwYXRoIGNsYXNzPSJzdDEiIGQ9Ik0yOS43OTQgMEw0Ni45MiA1MC4xNjhoNDkuNzc2ek0wIC42NjZsMTIuOTc2IDQ5LjUwMkgyOS4yMkwxNi44OTcgOC4yODN6Ii8+JiN4YTs8L3N2Zz4=;" vertex="1" parent="7HoGpTKX7v-v0K9tCKgV-23">
          <mxGeometry width="30" height="30" relative="1" as="geometry">
            <mxPoint x="15" y="15" as="offset" />
          </mxGeometry>
        </mxCell>
        <mxCell id="7HoGpTKX7v-v0K9tCKgV-25" value="" style="shape=image;imageAspect=0;aspect=fixed;verticalLabelPosition=bottom;verticalAlign=top;image=data:image/png,iVBORw0KGgoAAAANSUhEUgAAAOEAAADhCAMAAAAJbSJIAAAA9lBMVEX///80Z47yuzA0ZpDzujA0Z4w2Zo42ZZD8/P3+/vzwuzLzui7zvDIyZ5A3aY/y9fgrYoqIpr2SrMP6zGwwaJb75a/1vCH99OSNqMTzuyn3wjn2yWP0ujeCoLv++ev88tawxNP9xDT21IJrj67++/TZ4ejl6+/tviz989365rnM2eK6y9dKd5pchaRwk6+ctMf33Zn87Mj1xFH2z3L51o73zF38uDPzw0UnXIupus9RfaFTeKM+dJNtkakxaolvkK8nW5Blg6X44aTxwB40Y5keYob00W7nwSv20HwaZIPzv0RVgJvw0nb9ukP5wU/xuRHyzlT24ZoZk9SZAAAQ0klEQVR4nO2dCXfauBbHve82hoKp2CEsYd8DodNkmkzTvLzX6cz3/zJPsvEGTmIbJxY5/fecNoTE9Y8r6UpXV9cEkbwE62+oTHcwbEyz1cnFeDcaaXuNRrvxxaSanTaGg04mA3/O82vnICGT6XYHjdxkPGJ1JFpVdRKKI0nnH1VVafNNdTSeZK+HnW43cxaIQrdjsmn6ltd1jkXSOI4jNY10hV5wJKeR6JucyQpBs9fQomkDvKxMZzitQjidpjmOp+HNm4BkGLGkquvartoYYAspDK5NOg7SISFCkmVD4e0tS3K8zu6qQywZM43bL/kth4C4uIQkyfMcS+t/fG1g1yMzjbG2zfM8mwAhR97caBcDjIZWgRCGI9iFVNrqdntFIrNF86gVsCyn61VsAAmie7vlTAfA+hQP0flKHw0wYRQGoy1HHhPGAvRK166xGHGEBg07z6ENvVah6WcQXhPN53BAHH7hnyHco8G3YyJyPP85fcTBjn8zQvSbubT7YndCcy6hX0kQ8vw0XUDhemv5Psij2qJ51XxBW4pPCB0ryW2HqfrF7ogjLUDS5tNVTc0nRIiuTerd9PgEwjWhRUiru0luOv18u4NfJkCIpE9StKEwpkkf4XhqLQwyg9yIToiQ1BrpEXZ0zrEhZFEnHefjFuAgS/Mm36mE5EVa7VQgpmjh7hDqE5/z6oy3fCI2TNOIE10j3ZFmdNBfOqOECPVqan7fCkIgO0LXtx0cDusNneeTaKXkaJAOH5HR7VvgUBs98lvdWz6Rfkjq05SG045LyHH68Oh94TohG+qTVMYagRjq9hoCEmoBNzEYWUY8lZDcdd6fDxE2dDuKBmc244DRAHkMOv7qyRYcyVLpiMhZOIQcfRtA2PlGJ0O4TSUydUB4EUQ4VhMiTGmomdIk7czNdkGtdJSQDfVsOh4xx6sOIa0HDAYNLhlCnk/J5+doL2HuyB9msnpCNoSEqTRTnw3p0dHHPBiRydkwJULOBYR95cCImYmeTCul+XzKNkQ3AX0W3/C8J6BGzCZlQwwIkVcmR8hrCXs+4jPNfQxC5zZIktWqzoA6uEAtl0tk9YQJobnNpJOTRifTHVyPVRXaj0tmfZg+oRsH1kh9a4pWSfTexyOEsrqmFU38kIR7LNX8kt6vD7nAmPj5EpIfiZD2EZIfjxANlqRnrz6E54vjHdMkpH8TBhFGRsShH0YijAqInQ1fTlU4MxsGjjSvEkYFTJMwb7oFVSNV61ZU85UtNehuVZU/I8LPf27zUcTDqVw+RjNNj3BY/RxN2Ww293mkBhoXS8JYykzy50MoxFHmNh8R8Oxs+NEJhcyEjjoLf3NC+6xAMhfLTKJ2wzCEoijGvaGYv/e83obQVHRI66LdQWOay2bRUJ+IRmS43P1gwnYrSKtZYV6LASlkBrkxqW91fcvzKL6ku+Lhn3iKakE/Yc2QgaWmT8AwNq15JECIlx3tb0ijDyO7KNKkxdOJhHKFsST5RVEy+LXut0NDdhsXrG5OoM20e0uqq9Mj2acSUodSFAmAcr8dju96rEO+mxu0QkA5kCgkSNN4EyLJgGldhmigw9t8niYtQnMRxHGcEwZFeje4iIQAyDIoz1/BIzK5L9BikIK1jk+QB5QktoQIkGLkTf9lwO5X1szEMxPWPItZm/B96aIRUvDbDCM/zZ93GwLRYT0ne9D1bcj9S9r5Hi6Ee+8B9i/hW/LmhYY60F1C6/pnSKgY62eHm4G2v/EzIjwQegsYrWecxmCnfghCWZYKgT2x8y1vL8CPCNkzImSYCrMuBgBmqrzqDTG4Q827wQQqGqFJqShgdmxE4dq/a02etmOUnGIQMgpVOjZiJ8/TH4dQAa1DpyhcbD8UIQX8RhSI4Z88718lnS+hggRWfiMKI94mdK583oRyye8TzaMDqUw7X5WPEDAhCC1Mo+Az4TfemlpzHC6mcxSXEDx4CYd5nnOVNpNfMQkpsKl7CKu0Z7qGM6EhhyakenceX7hzLveBCMGjO5hew6U75wSePgohtXaaqfA5z+JMuHVy9YtG+H5IVTbOaNq5UM14DKaE9NYpPVCPQMhUwMwmHHxxCNPGCRK9vbYaqUjMo7TSirys2e7eTB/AmHB/ME4k+lEIGXmx74iZ3BY1THwJ6YFNOJNDt1L0Q6V9YLF7weNN+M3JH1+G9/gMI8vGneUvOqM9Ydooz8g9CNxe3N9Toec0BjD2HXHI7/th2ijPSG3YJpyX7nuhCaleD1hhRWGqY21DdeccsLzr/QhPKPV6SsmMDWequhVyShvlGbkn18Ql6AE5vA0luIJCHbE7xszFHyh/bZuwvkC7L6EJzYU+2jPtarhaz5TuHk+9UyITPqChZvAda0K3aETxE6BkORKhskHxqKl96hzl1qdLcyxNnzgroH6JUuQIcxozHgVnNUIWZ0JSc7x9bQmUyIQGnNUIX+3qlLgRorqg7qlGsa9QkQklFN3PjJz6m3jF2tibG23rFhcsrq0twggrYCiwFImujqmzgIT6rV2MAk667T1QKgqhshY9BTxwE/v9qws470mxCEttYqjHyFN6F7kWhHPuXkxCo0ZM3zl5JKQ0lfTWGVhfXZmJFo5CElLGnMipWPZDfdRw+dotEJuwT0RP+HxJp2ZMcRxaAXC6NvFUbGnP4EIIRETbt9LmHXGhJhhcM3PCVFKNJbOCdF67YXn+1lstuX1XQoRUdD64hGquiHHklNaXAfMqTcZDpFWO5f/Sv/9RHbpDjAgtWAK9HkXFJFwSu+QINVKl+WgHafzSv+e/TIZdj/1EQmz1AGWlkFLRCZVmmRglhaeRur7djsaTai6mpo1B9zBvvvYPsp+PELxC5VNzTWgJ9UJdG11MEyio7kMU7371oOLaEM5MqQWRSBvl1NGk0bFvMb78sO36w33vx2mEyoY4kY01a2LscmZt6iSPZkC+2ab348ePo1YajbB0qg1Zlt+OcknW3raCuO35bAGkntlG4a1S1pwt6kiDFlAnEsIFwJ+3/t4X/wCLo3a98LiBA4pvKhoRzkE8caRhb/7jKyx+Mp1YnBdWnxYSgDfn3uhJhNEPsXil/+Gth4fwxHph1lp+iqPlp/J6sSkpAJgZMckQSsSOi0/IqhcZ7+Eosd1fMihh1zAF5Ghi4O8BgHpeUoTwGiU4aztB1a4HsF1fldD+Hhz2rMRkpRJR6NNBY4uUnA2pJ2ISe43Pkllvxcv6rGSYQ59SUexPMJIYBjGahFJihPKCyMYkpEm96gGsFRaAkq3BvRIRzREkRNsNCBB9/AkQUmBt1TuOAUjz3iLNly1gj+1SZK/lBbG8u8QcvRHzos0HohHThvm8AygS87XMKK//d68KkZiASREqzUdiGI9QdUsjQ8BNT0kC0BOmOP5+rAtKzVncaOJ26o6ic2nfdfAjVECByKghnznllebueYlEXalgS4hibcIuxrRN1dzaz5cbCroyBVfCIiFEdYjoAA3tVoVtP8DhvVKh3rQfxohfWEIxbyGqQ2RZlvaUSb8zTuZ6O0lgLRKR3QUHCd1wdP3JnFKmjfKMJNAS0Ym8aIAcR46cXig+ApwJKQPlCXejRdvQgQW3Pnn/SY4RiX43mbvcRPciygoRhaZV5wk+7UcDb8JNDdUWiDbUqPm85owz859XaUO8KLBEx0qEhs7y4X2iSud39mxGvAO4Wo8yPQywkhMHLMuFR6T5bdVZMi1lp2oDdoJ9R7by2ojOLgohnHM37ClpfaNI+CKixaF15Lk70fkIhKTesQn7hkOIIWSvB/YnnoXcNkoiDavvfYXYnhkU3oR2eYVhPkIiDcv+4fiKZVPCmRDYmezE4Asdfm9aY//rDDTrJs42pIxH+whi9zYfvk6cpn91CBfNHsaEvZJzZkbI0VEILxzCjYExodT7xz2e19Dy4TuiS1jcNAHOhP9zN1E6uwj90EPYAzLOhJ7zh0SVDj351miXsFSpVPZ4GM6+N97z6g01PKHqElYqP7ElhItfDyCR2YXuh17Cn1cMhWULRYJLQ+9mZi70CspHKJupLmmzBEih5AXhUzcsoI+wFCm15T2lSEbhoDDGJGya6XkQUvLmsMxQ6OD+mRAad0cFv6ohEQ8JZTxjbZvj+jTo8cUxCGU8CY2AQlFCQw9VFP4sCEE5sE7UxHyE7wcghD6sH5jXM9jxIcpa4k8oA+OxFgQI26mWfz1NG39Chvm7HgiIzsuGWCbiTyg9BdejMxGz+qt1cH1rC0jIMDJms+5m66Xkutcj/AeEsc4IvKmaDy/wQU2DH0xxNoTKa4AEMRyrdB5FptTg8JTGH7ZSbAhRic/Si03UUif75a89YVCVf78NFUxsaKUKGmBdCFMMOjOsmubLB4ansCRkEKPxS1nVQ2bwWuXKaUR4XHOcx4+QqVRk8KvXqoer5m0xdoe5Cy2obPx2O/YRorTQSJR2fm2SAtK61S9G4DMlCJnuYNg4lrMDHIsQLAtJqz+/bKME86g55q8fMIhHeHdyKn+gYl715ZMt8Qhn8PNOWkl9TIcyPX5UQnkWtbukqFiEyIZp33hoxSVM+77DKyZh2rcdQbEIqUW5/PCwXpdflX2UBn29CPHYircijDqnAT00fwwl8xyNbD5Z5tdzq3YsCXuUWehfiqJzIjS3cuSoE1kjRUIUpHn7OE2KhO8UifpN+JvwN+Fvwt+EYXV4OPbDESpKqdlsBjJ+BEI4y5GNEpyQb+CE9IgxzTlNQtFERpGNcr9Ya7dr9VUJHNrxAxAqspOyDC/8CA7a6tkTMoy8qDnxMvjPnST1vLlW6REmFPNmrv4ueuKB8KsZZRY1+TCEMtP3BTxFQixjQphQK3Vzzh3E+T0ehLYNT6Qs9Y8uLv5zjwNhU1ESISwfBZpE4l8PoWKkFInaACoRQhCU/zJ3DxgrihGU4/T2qq1BMjYEq4Aw+KWb+AgJUwkji7VlQiMNWAUAXN675V+o0vvjIbVnjg1PJAxspR5Cufz+dNZNRI13PyM5aKS5u3cL14BZ3P3BE3W5sBFPI6SCnm/7YBdTgjLqKRG2VwkRHnVEEQ40LqC8SG2/qq8ks/aVlSMjfZLdRmrM3m6b9xUVl8nkssvGouhHnF2hJ1FaFbLkgIeKvpv6pUTOzMgy8D3fViyg5zzsASupbhu3H6lETgUx6GF+dmcTizNp3zaQLwQpbR7uVd8kdToPSKt5vdauXc4LZecx26a3fz4h9l3UBwkRUjIolZetx08L4J2vKb3nHrL9XhJXRnInLGXPU9L3iKAcnJX+jmo/GpJVYe0NjukpYJNqJ9wjtoBVDzDhk3oyIytAKqY0m/EjrhTmyqzpmBwh7IBXV1fIh2AAiOrCP8lW4dEkCZmrClxzYAEIh5v5+hc4GiVOI4Qe8q6NCyDU5QplySS3BwWH1eUcr/yw9rz8CySTDq0okmJsCql7iSPV+n/v55InMwKwquHTPj1qF54AStQyK3FH75MMJZtnUoGyqsVO+n1ToXvql39eXaFKub17ECLzyf4JVFdZQZWS741KGZ2ZwJEPCd3XfFXeUEDu9UCEjVNrGAbGZt3qx8hJf0+he6v1Z5+eeubIGrZLmjXANw//9i8JvPmQzPsrzguttQTMhvriLADOghSlCYzSulWYX4oE/nyu2pf1PqQ0zC6mUP4JnR3pRXB7OvycQwiJaD1797guGYbRhCo5HVNW4EsDwT3ezYu1M0puP5DZ6kSxDRvtrLUsL56eJNQwN5sFXOvOCvNi2zos8ZaA/wdWTYjv1iAuYQAAAABJRU5ErkJggg==;" vertex="1" parent="7HoGpTKX7v-v0K9tCKgV-23">
          <mxGeometry x="180" y="40" width="20" height="20" as="geometry" />
        </mxCell>
        <mxCell id="7HoGpTKX7v-v0K9tCKgV-30" value="" style="group" vertex="1" connectable="0" parent="1">
          <mxGeometry x="1540" y="1353" width="200" height="60" as="geometry" />
        </mxCell>
        <mxCell id="7HoGpTKX7v-v0K9tCKgV-31" value="" style="strokeColor=#dddddd;shadow=1;strokeWidth=1;rounded=1;absoluteArcSize=1;arcSize=2;" vertex="1" parent="7HoGpTKX7v-v0K9tCKgV-30">
          <mxGeometry width="200" height="60" as="geometry" />
        </mxCell>
        <mxCell id="7HoGpTKX7v-v0K9tCKgV-32" value="&lt;font color=&quot;#000000&quot;&gt;Channel&lt;/font&gt;&lt;div&gt;&lt;br/&gt;&lt;/div&gt;" style="editableCssRules=.*;html=1;fontColor=#999999;shape=image;verticalLabelPosition=middle;verticalAlign=middle;labelPosition=right;align=left;spacingLeft=20;part=1;points=[];imageAspect=0;image=data:image/png,iVBORw0KGgoAAAANSUhEUgAAAOEAAADhCAMAAAAJbSJIAAAAkFBMVEX///8AfMIAd8AAesEAdb8AdsAAcr4Acb4AfcP7/v8AgMTR5fLx+PyIud3K4PDF3u/d7Pbm8vnt9vtGmc94sNllpdSexuM+k8yjyeWrzucujMl2r9mSv+AVhMbZ6vW82OxXn9GxzuciiMebv99Xm9BmotM9ls0AaLqtyeRsqtaNvN/d6PO32e2Ctdux0+mXxOJ7kliDAAAL30lEQVR4nNVdiXLiOBANalnG5jRHDE6MiYfJLskS/v/vliOQQEB6snU4r7a2dqtmjJ/VavWthwcHiLrDYvbnaTnOyjxux3FeZuPp5s98kESRi9+3itH7fLLKueCcMaLW7p8dDv/BAs5Dyv6+FcmvpZkUmzTeUTuwuo09UUHZdL7w/bL66DxnjDOSsPvGc/cn88nA9ytrIFr04jDA2J3BBK0Hv0Nek8dMMC1y56UU5ab54rqYtrje4l2SZOPCNwUp+q9Cplggkjx+bKywDlJRk94RPN52fXO5hc7SDL8Dx7x56xiteSX1cp9jw/bjLDDKbwcK06FvVl9YGNqAVxzZW1NEdVtXf96jyLOOb257JGmNA1DJ8c03vYeHgkzvwAvw18QzwY2NHfgdrO3VJO+OuV1+rb2kbv0RHMZWJfQEMfVFcKDpIFUGT/1YcYWlQ+IGWDbyQHBm75C4QTF3r1IfQ3f8dqC2axtuZl+JXlGM3a7i3JiIHkKLX5D8wdLlXixCAwT3IVNG1M6z1/F4OX5Ny3gfdjtGVm+AZe40aqfuCh7ih+l6W3SGl2+dLPovvWV2O8zKUlcEk7gWQeIie5oPZTKXLB7XpfjxHfnaDcEoq2HJ7Oit5pDOiJLZUlwFtvijbXIHLIPK/AI2/tDyaotp/H0libswwx9F5eXLn/UPte7HKvhaSIrta5t+UHETinJe8e0WG3bmyMZm6fxEVFYiSCye1/jV7hudPqywvRWfKtkyjHo1g0rRW+uo34jsmm+DKpuQxMrAWyXro86xLKdVTkLiMzM/3skOAiTqyLsKmwonIU/Nmcy9/TIS2dOnC32fl0TP5Bt0yt03Dp5MPvICS+0lJPow+wrd5U4TBLaUTV9bzbDc/Lv0QmJL4089ItWVUf5qY8fMgxa3E+0f6MYtuKUoYMEtLaLuEnJrCqEQwkZFQ0fTmrFHcCeooQ3xmOopUrve6vM/5oM2SUtLSG3twROWRo/ZA7ZaQsrGltO3UWb8BzKdJaTcen66Y7qSoaNz2hNzEL01Hc/o6egZYdhUc4JcgyCf+H7bChhq2DNkXgk4gE4ixpLRaBlLXJOyje+XrYJII3oR/0YZ3Tn3uIz+Rj368PACb0Nylh8yCzwCxRtWNIlihW7D37qEEWyUCmQJh/PJKv3bmzeofnQEq9JY/bBidWg1Ybt/p27SgQASVNHwZ9WjFhn/ytITLxvSKQM7FlzleW+vShwoVH4TJyjANaSV4kHrn5/KbEy8KuYgQ67ImUxvPcdqogXFI8aQSO74Tm4KO7EGWOrPWG2C4jAs7uxmyn0UHl4CZMiknm83v3fkuKsEuguQodxie74v6v6DAlvMLJVm2KO2xGqwXn6gAqZpSOoZ3tuFx7/KPJ/82GlBmewZT1I5oLbftgrsxJenvBR1OA5iyDK8Q1abPECj+khMZQ9ZRQJpmuCP5BGRUgy8KtTR3aPs4hX/lT1DLeimym6qAPOA+YvsGUD3Sdh3RegnoHCpnOEYeITCrrUJKC8jZ4icqeSwVv0KUDRRvg8TRB9bK5RRYoFIKZP3e64hOfClUKMYYSivTRhCnW6hL4WKqBpSFH5CBeIUeLJQoexarnjIzSDGD4rOW7iOWAAZUmqpfHWoUYNKPwpV5t2dEKhObMw2sl+OfxNy5+cIdUdLB2pl4F5yrEgJOy2Vj5lDXooXlz9CijFy9Q7qNVehQmIKmM5Y15QPC7UPqHp5OPEIzE+h0oPLj7wZUqWAdS/6cPkfATGFEqRYQbwHC3UENFuoDLcj5lCBlXBvoSLOgYBMrg0Uu3Pv8g8B6VL4FydgrSmWu9SqvRfYO9eFuhjdu/xIshtcRKwywL1CRYQLrEzsQy39Njsabr8WYI+gNUNYtse5QkUWEc3LQ/22zpNSSKkwEZi0TiF/uOXYQp0AcorqB1ChOk5KdRFfH53tMAQIunf5Z4gnHID1I1he0rXLj/Towb3I2ya6/FC3M1w/soYUqpN5H1/oIS/FwKM6ghSqa5cfUoGotsECjI6bVBZQSDAEJQvr8Q/+2uV0BUl107fPjvo+H5i2cVuHOoasEdT3ecaiGk794RFU9g2nO6EOY2o7dRalJVxfnx0MJmEK1XF+GDoyYN9nhNiCrgZ9nbCCJEuZjfoENOKOmNO4zf162IuXQgvyPiD1LC0NNI4hdCrCRzUk9up2DqPAzrFgCT4OCR84llPwHIP7KRCxdx18W0OJMjRuA1WjOG7OwM4xItAfhrSNg6mC34GdYxSDoSnEtnHt8Hcgx4CBWh6qvBKOY29YgzADR7kgxiD6LGPAzDf0IEOODOdtUljlAdgAPQSk3nmFJlh5gKVOHzbA9xKuFxGrPCCg1uYB087uy2yxRBkYup4YS6WbxAyqPMD84ZG5LKxJTLDKA8iDBY59Yu5bMrHKA4EEGJFqG+a+sg9MlEHXGwCPcuwKH5Bg13Ei/nAPODDchhaPwEYoIyYXMp8RTYsYBZgoU5tvkMR7GWQEJcqQYhTEiYKUlnFg/rC6+R7pyfUipg9drHA0VQlYB4lJtZxQugaWdlMONoWqIUI/1+pCkRZ1Wh5RNR4O/QOwzCJXfH8TTVbWACXKVG4G4l/IxxvYBNTapDBJ/iBhA+brfmtoaJbC/cE6VqU9uTbRAULXChGDGCK9HZaAtDaFUicDYqicSWURGzVFudGFMfQ5B1YdYOT/yf7+vxBDNFdgA11lgFHeW/OIhWB9zntR+sNymwubtOk8bHqBvjz6Rky6h7Coj+dRsPLOdIUexCZt+hyFsoe0El8+mw8cWhx4vAj58Joyf1ieyIVGVOwY+r6UXFJwo8i1gUOLmfeRknfrnFRnNeJaNILhPfONVHfEgPfZeJfShzv5YVJdnICN3doxbMJs1+VPihSoKmLAUaKuSxXvYHz9tqylTHcjA6UODJsw2XV3LF7MDaZwrDQm8anMDZmNPsj48YpmIsYz4KWQxMwB4t3+22MopiUJwdvZBEoYoZcuqUb6OkWUvL+/g++DDmWGxow0EvB8+986wR+Lmu/hoVzBBPArChpyHGpD48IeH4nu+ujiN7lS2/8Q8ArQuIDwdyoa9IKCPZrgWWgDa1L5hPiN21DntmFihn/cRQAdGhx5gvFKBWkQ3gz0rlM2Xm3Stx59Tdo6BFvmR0nklg15rPTvjMB818XM7oQ4sC3/DAsp7sjKFcNnjFG39wgrhRib0F5WOVrpEbQTwEhYaCsC24Wa378vYWnlPZ6YpZuZulCByndYuqp2yMjK5K0k1yVIqonMVTFhLf5qXKMWuMN0XkJbYcQRUYuVhlPLWKft5RLa85ve+D6GZzLz2l3qE1RPnK6OaO/dEB8bc64Hse4WbFnuPxwcPFRmqLQzetK4J/oMYlbDpMcoA/HMgGVflBUW0Hoz9+jTASC+qqlxkiXU8PYD1jvzznMUSIxrbPjRhFdaQBelXtOzBUkifam2JYYTpmmHnuEgoxZ98+NI5Bt9YS3+Mv1D/kTQRTP+5WguFpRvOiQ7m5xX5ufqnsSr9BcForX+GAHWXLeYtMJq2+/zp1zl037M/ifGebaedZK7NEfDj03KRPXVO/6Os2LEW3HNHUvRzlbrbdFfJKcV7Y6GncFLb5rmQQ3ZPMGawf0T94IqRMQCfkzbt3doff5/fXJ7OL1EKFL4rHSGCWpHOB6gNKpmcdUh6DoRM9J2zOshdH/zjH5wpQZI+EildTVjuHUI+qp3vlGWZwf+StafhEFdeRdeLyafmznppAhSrxUJfdsqlcTa6zXBh2CZzWWkJtSQbqtFIyDwzM9FgVcYppY4EvdfjP+JLbOxG3nWoHqSZBmaXkYmnj2rmCsMMqOiSnzZvKq1eW6MY71IpT10Z7mRk4MEUu/uCfXXkZhIPd2WC2KwqhOzIN6aNlI+LzB8zkSlw2O3fNlzgxoMJIj6k1g3cEiBaG86zTof5Oj3SvbZK6MkR7s/Wb41Xzp/YPiyzlqCyWjuyfE43RS/QzhvIelv12k7FDw4MP2MMH7GVUNWribzRfOOdm1Eo8589rZevqZlvkOZvY6nmz/zYhg52Xf/A6AjrqRFV6iFAAAAAElFTkSuQmCC;clipPath=inset(0% 91.33% 86.44% 0%);aspect=fixed;" vertex="1" parent="7HoGpTKX7v-v0K9tCKgV-31">
          <mxGeometry width="19.18032786885246" height="30" relative="1" as="geometry">
            <mxPoint x="15" y="15" as="offset" />
          </mxGeometry>
        </mxCell>
        <mxCell id="7HoGpTKX7v-v0K9tCKgV-33" value="" style="html=1;verticalLabelPosition=bottom;align=center;labelBackgroundColor=#ffffff;verticalAlign=top;strokeWidth=2;strokeColor=#0080F0;shadow=0;dashed=0;shape=mxgraph.ios7.icons.message;" vertex="1" parent="7HoGpTKX7v-v0K9tCKgV-30">
          <mxGeometry x="10" y="20.25" width="30" height="19.5" as="geometry" />
        </mxCell>
        <mxCell id="7HoGpTKX7v-v0K9tCKgV-34" style="edgeStyle=orthogonalEdgeStyle;rounded=0;orthogonalLoop=1;jettySize=auto;html=1;exitX=0.5;exitY=0;exitDx=0;exitDy=0;entryX=0.5;entryY=1;entryDx=0;entryDy=0;" edge="1" parent="1" source="7HoGpTKX7v-v0K9tCKgV-35" target="7HoGpTKX7v-v0K9tCKgV-13">
          <mxGeometry relative="1" as="geometry">
            <mxPoint x="1057" y="1563" as="targetPoint" />
          </mxGeometry>
        </mxCell>
        <mxCell id="7HoGpTKX7v-v0K9tCKgV-61" value="HTTPS" style="edgeLabel;html=1;align=center;verticalAlign=middle;resizable=0;points=[];" vertex="1" connectable="0" parent="7HoGpTKX7v-v0K9tCKgV-34">
          <mxGeometry x="0.0682" relative="1" as="geometry">
            <mxPoint as="offset" />
          </mxGeometry>
        </mxCell>
        <mxCell id="7HoGpTKX7v-v0K9tCKgV-35" value="" style="strokeColor=#dddddd;shadow=1;strokeWidth=1;rounded=1;absoluteArcSize=1;arcSize=2;" vertex="1" parent="1">
          <mxGeometry x="960" y="1593" width="200" height="60" as="geometry" />
        </mxCell>
        <mxCell id="7HoGpTKX7v-v0K9tCKgV-36" value="&lt;div&gt;&lt;font color=&quot;#000000&quot;&gt;Real Time SMS&lt;/font&gt;&lt;br&gt;Cloud Functions&lt;/div&gt;" style="editableCssRules=.*;html=1;fontColor=#999999;shape=image;verticalLabelPosition=middle;verticalAlign=middle;labelPosition=right;align=left;spacingLeft=20;part=1;points=[];imageAspect=0;image=data:image/svg+xml,PHN2ZyB4bWxucz0iaHR0cDovL3d3dy53My5vcmcvMjAwMC9zdmciIHhtbG5zOnY9Imh0dHBzOi8vdmVjdGEuaW8vbmFubyIgd2lkdGg9IjIwIiBoZWlnaHQ9IjE5Ljk4OTk5OTc3MTExODE2NCIgdmlld0JveD0iMCAwIDIwIDE5Ljk4OTk5OTc3MTExODE2NCI+JiN4YTsJPHN0eWxlIHR5cGU9InRleHQvY3NzIj4mI3hhOwkuc3Qwe2ZpbGw6IzQyODVmNDt9JiN4YTsJLnN0MXtmaWxsOiM2NjlkZjY7fSYjeGE7CS5zdDJ7ZmlsbDojYWVjYmZhO30mI3hhOwk8L3N0eWxlPiYjeGE7CTxwYXRoIGNsYXNzPSJzdDEiIGQ9Ik0zIDMuOTlMMCA2LjQydjcuMTNsMyAyLjQ0eiIvPiYjeGE7CTxwYXRoIGNsYXNzPSJzdDAiIGQ9Ik0zIDMuOTlsLTMgNCAzLTJ6bS0zIDhsMyA0di0yeiIvPiYjeGE7CTxwYXRoIGNsYXNzPSJzdDIiIGQ9Ik0wIDE1Ljk5bDQgNCAyLTItNi02em0uMDEtOEw1Ljk5IDJsLTItMkwwIDMuOTl6Ii8+JiN4YTsJPHBhdGggY2xhc3M9InN0MSIgZD0iTTE3IDE2bDMtMi40MlY2LjQ0TDE3IDR6Ii8+JiN4YTsJPHBhdGggY2xhc3M9InN0MCIgZD0iTTE3IDE2bDMtNC0zIDJ6bTMtOGwtMy00djJ6Ii8+JiN4YTsJPGcgY2xhc3M9InN0MiI+JiN4YTsJCTxwYXRoIGQ9Ik0yMCA0bC00LTQtMiAyIDYgNnptLS4wMSA4bC01Ljk4IDUuOTkgMiAyTDIwIDE2eiIvPiYjeGE7CQk8Y2lyY2xlIGN4PSI2IiBjeT0iOS45OSIgcj0iMSIvPiYjeGE7CQk8Y2lyY2xlIGN4PSIxMCIgY3k9IjkuOTkiIHI9IjEiLz4mI3hhOwkJPGNpcmNsZSBjeD0iMTMuOTkiIGN5PSI5Ljk5IiByPSIxIi8+JiN4YTsJPC9nPiYjeGE7PC9zdmc+;" vertex="1" parent="7HoGpTKX7v-v0K9tCKgV-35">
          <mxGeometry width="30" height="24" relative="1" as="geometry">
            <mxPoint x="15" y="18" as="offset" />
          </mxGeometry>
        </mxCell>
        <mxCell id="7HoGpTKX7v-v0K9tCKgV-37" value="" style="shape=image;imageAspect=0;aspect=fixed;verticalLabelPosition=bottom;verticalAlign=top;image=data:image/png,iVBORw0KGgoAAAANSUhEUgAAAOEAAADhCAMAAAAJbSJIAAAA9lBMVEX///80Z47yuzA0ZpDzujA0Z4w2Zo42ZZD8/P3+/vzwuzLzui7zvDIyZ5A3aY/y9fgrYoqIpr2SrMP6zGwwaJb75a/1vCH99OSNqMTzuyn3wjn2yWP0ujeCoLv++ev88tawxNP9xDT21IJrj67++/TZ4ejl6+/tviz989365rnM2eK6y9dKd5pchaRwk6+ctMf33Zn87Mj1xFH2z3L51o73zF38uDPzw0UnXIupus9RfaFTeKM+dJNtkakxaolvkK8nW5Blg6X44aTxwB40Y5keYob00W7nwSv20HwaZIPzv0RVgJvw0nb9ukP5wU/xuRHyzlT24ZoZk9SZAAAQ0klEQVR4nO2dCXfauBbHve82hoKp2CEsYd8DodNkmkzTvLzX6cz3/zJPsvEGTmIbJxY5/fecNoTE9Y8r6UpXV9cEkbwE62+oTHcwbEyz1cnFeDcaaXuNRrvxxaSanTaGg04mA3/O82vnICGT6XYHjdxkPGJ1JFpVdRKKI0nnH1VVafNNdTSeZK+HnW43cxaIQrdjsmn6ltd1jkXSOI4jNY10hV5wJKeR6JucyQpBs9fQomkDvKxMZzitQjidpjmOp+HNm4BkGLGkquvartoYYAspDK5NOg7SISFCkmVD4e0tS3K8zu6qQywZM43bL/kth4C4uIQkyfMcS+t/fG1g1yMzjbG2zfM8mwAhR97caBcDjIZWgRCGI9iFVNrqdntFIrNF86gVsCyn61VsAAmie7vlTAfA+hQP0flKHw0wYRQGoy1HHhPGAvRK166xGHGEBg07z6ENvVah6WcQXhPN53BAHH7hnyHco8G3YyJyPP85fcTBjn8zQvSbubT7YndCcy6hX0kQ8vw0XUDhemv5Psij2qJ51XxBW4pPCB0ryW2HqfrF7ogjLUDS5tNVTc0nRIiuTerd9PgEwjWhRUiru0luOv18u4NfJkCIpE9StKEwpkkf4XhqLQwyg9yIToiQ1BrpEXZ0zrEhZFEnHefjFuAgS/Mm36mE5EVa7VQgpmjh7hDqE5/z6oy3fCI2TNOIE10j3ZFmdNBfOqOECPVqan7fCkIgO0LXtx0cDusNneeTaKXkaJAOH5HR7VvgUBs98lvdWz6Rfkjq05SG045LyHH68Oh94TohG+qTVMYagRjq9hoCEmoBNzEYWUY8lZDcdd6fDxE2dDuKBmc244DRAHkMOv7qyRYcyVLpiMhZOIQcfRtA2PlGJ0O4TSUydUB4EUQ4VhMiTGmomdIk7czNdkGtdJSQDfVsOh4xx6sOIa0HDAYNLhlCnk/J5+doL2HuyB9msnpCNoSEqTRTnw3p0dHHPBiRydkwJULOBYR95cCImYmeTCul+XzKNkQ3AX0W3/C8J6BGzCZlQwwIkVcmR8hrCXs+4jPNfQxC5zZIktWqzoA6uEAtl0tk9YQJobnNpJOTRifTHVyPVRXaj0tmfZg+oRsH1kh9a4pWSfTexyOEsrqmFU38kIR7LNX8kt6vD7nAmPj5EpIfiZD2EZIfjxANlqRnrz6E54vjHdMkpH8TBhFGRsShH0YijAqInQ1fTlU4MxsGjjSvEkYFTJMwb7oFVSNV61ZU85UtNehuVZU/I8LPf27zUcTDqVw+RjNNj3BY/RxN2Ww293mkBhoXS8JYykzy50MoxFHmNh8R8Oxs+NEJhcyEjjoLf3NC+6xAMhfLTKJ2wzCEoijGvaGYv/e83obQVHRI66LdQWOay2bRUJ+IRmS43P1gwnYrSKtZYV6LASlkBrkxqW91fcvzKL6ku+Lhn3iKakE/Yc2QgaWmT8AwNq15JECIlx3tb0ijDyO7KNKkxdOJhHKFsST5RVEy+LXut0NDdhsXrG5OoM20e0uqq9Mj2acSUodSFAmAcr8dju96rEO+mxu0QkA5kCgkSNN4EyLJgGldhmigw9t8niYtQnMRxHGcEwZFeje4iIQAyDIoz1/BIzK5L9BikIK1jk+QB5QktoQIkGLkTf9lwO5X1szEMxPWPItZm/B96aIRUvDbDCM/zZ93GwLRYT0ne9D1bcj9S9r5Hi6Ee+8B9i/hW/LmhYY60F1C6/pnSKgY62eHm4G2v/EzIjwQegsYrWecxmCnfghCWZYKgT2x8y1vL8CPCNkzImSYCrMuBgBmqrzqDTG4Q827wQQqGqFJqShgdmxE4dq/a02etmOUnGIQMgpVOjZiJ8/TH4dQAa1DpyhcbD8UIQX8RhSI4Z88718lnS+hggRWfiMKI94mdK583oRyye8TzaMDqUw7X5WPEDAhCC1Mo+Az4TfemlpzHC6mcxSXEDx4CYd5nnOVNpNfMQkpsKl7CKu0Z7qGM6EhhyakenceX7hzLveBCMGjO5hew6U75wSePgohtXaaqfA5z+JMuHVy9YtG+H5IVTbOaNq5UM14DKaE9NYpPVCPQMhUwMwmHHxxCNPGCRK9vbYaqUjMo7TSirys2e7eTB/AmHB/ME4k+lEIGXmx74iZ3BY1THwJ6YFNOJNDt1L0Q6V9YLF7weNN+M3JH1+G9/gMI8vGneUvOqM9Ydooz8g9CNxe3N9Toec0BjD2HXHI7/th2ijPSG3YJpyX7nuhCaleD1hhRWGqY21DdeccsLzr/QhPKPV6SsmMDWequhVyShvlGbkn18Ql6AE5vA0luIJCHbE7xszFHyh/bZuwvkC7L6EJzYU+2jPtarhaz5TuHk+9UyITPqChZvAda0K3aETxE6BkORKhskHxqKl96hzl1qdLcyxNnzgroH6JUuQIcxozHgVnNUIWZ0JSc7x9bQmUyIQGnNUIX+3qlLgRorqg7qlGsa9QkQklFN3PjJz6m3jF2tibG23rFhcsrq0twggrYCiwFImujqmzgIT6rV2MAk667T1QKgqhshY9BTxwE/v9qws470mxCEttYqjHyFN6F7kWhHPuXkxCo0ZM3zl5JKQ0lfTWGVhfXZmJFo5CElLGnMipWPZDfdRw+dotEJuwT0RP+HxJp2ZMcRxaAXC6NvFUbGnP4EIIRETbt9LmHXGhJhhcM3PCVFKNJbOCdF67YXn+1lstuX1XQoRUdD64hGquiHHklNaXAfMqTcZDpFWO5f/Sv/9RHbpDjAgtWAK9HkXFJFwSu+QINVKl+WgHafzSv+e/TIZdj/1EQmz1AGWlkFLRCZVmmRglhaeRur7djsaTai6mpo1B9zBvvvYPsp+PELxC5VNzTWgJ9UJdG11MEyio7kMU7371oOLaEM5MqQWRSBvl1NGk0bFvMb78sO36w33vx2mEyoY4kY01a2LscmZt6iSPZkC+2ab348ePo1YajbB0qg1Zlt+OcknW3raCuO35bAGkntlG4a1S1pwt6kiDFlAnEsIFwJ+3/t4X/wCLo3a98LiBA4pvKhoRzkE8caRhb/7jKyx+Mp1YnBdWnxYSgDfn3uhJhNEPsXil/+Gth4fwxHph1lp+iqPlp/J6sSkpAJgZMckQSsSOi0/IqhcZ7+Eosd1fMihh1zAF5Ghi4O8BgHpeUoTwGiU4aztB1a4HsF1fldD+Hhz2rMRkpRJR6NNBY4uUnA2pJ2ISe43Pkllvxcv6rGSYQ59SUexPMJIYBjGahFJihPKCyMYkpEm96gGsFRaAkq3BvRIRzREkRNsNCBB9/AkQUmBt1TuOAUjz3iLNly1gj+1SZK/lBbG8u8QcvRHzos0HohHThvm8AygS87XMKK//d68KkZiASREqzUdiGI9QdUsjQ8BNT0kC0BOmOP5+rAtKzVncaOJ26o6ic2nfdfAjVECByKghnznllebueYlEXalgS4hibcIuxrRN1dzaz5cbCroyBVfCIiFEdYjoAA3tVoVtP8DhvVKh3rQfxohfWEIxbyGqQ2RZlvaUSb8zTuZ6O0lgLRKR3QUHCd1wdP3JnFKmjfKMJNAS0Ym8aIAcR46cXig+ApwJKQPlCXejRdvQgQW3Pnn/SY4RiX43mbvcRPciygoRhaZV5wk+7UcDb8JNDdUWiDbUqPm85owz859XaUO8KLBEx0qEhs7y4X2iSud39mxGvAO4Wo8yPQywkhMHLMuFR6T5bdVZMi1lp2oDdoJ9R7by2ojOLgohnHM37ClpfaNI+CKixaF15Lk70fkIhKTesQn7hkOIIWSvB/YnnoXcNkoiDavvfYXYnhkU3oR2eYVhPkIiDcv+4fiKZVPCmRDYmezE4Asdfm9aY//rDDTrJs42pIxH+whi9zYfvk6cpn91CBfNHsaEvZJzZkbI0VEILxzCjYExodT7xz2e19Dy4TuiS1jcNAHOhP9zN1E6uwj90EPYAzLOhJ7zh0SVDj351miXsFSpVPZ4GM6+N97z6g01PKHqElYqP7ElhItfDyCR2YXuh17Cn1cMhWULRYJLQ+9mZi70CspHKJupLmmzBEih5AXhUzcsoI+wFCm15T2lSEbhoDDGJGya6XkQUvLmsMxQ6OD+mRAad0cFv6ohEQ8JZTxjbZvj+jTo8cUxCGU8CY2AQlFCQw9VFP4sCEE5sE7UxHyE7wcghD6sH5jXM9jxIcpa4k8oA+OxFgQI26mWfz1NG39Chvm7HgiIzsuGWCbiTyg9BdejMxGz+qt1cH1rC0jIMDJms+5m66Xkutcj/AeEsc4IvKmaDy/wQU2DH0xxNoTKa4AEMRyrdB5FptTg8JTGH7ZSbAhRic/Si03UUif75a89YVCVf78NFUxsaKUKGmBdCFMMOjOsmubLB4ansCRkEKPxS1nVQ2bwWuXKaUR4XHOcx4+QqVRk8KvXqoer5m0xdoe5Cy2obPx2O/YRorTQSJR2fm2SAtK61S9G4DMlCJnuYNg4lrMDHIsQLAtJqz+/bKME86g55q8fMIhHeHdyKn+gYl715ZMt8Qhn8PNOWkl9TIcyPX5UQnkWtbukqFiEyIZp33hoxSVM+77DKyZh2rcdQbEIqUW5/PCwXpdflX2UBn29CPHYircijDqnAT00fwwl8xyNbD5Z5tdzq3YsCXuUWehfiqJzIjS3cuSoE1kjRUIUpHn7OE2KhO8UifpN+JvwN+Fvwt+EYXV4OPbDESpKqdlsBjJ+BEI4y5GNEpyQb+CE9IgxzTlNQtFERpGNcr9Ya7dr9VUJHNrxAxAqspOyDC/8CA7a6tkTMoy8qDnxMvjPnST1vLlW6REmFPNmrv4ueuKB8KsZZRY1+TCEMtP3BTxFQixjQphQK3Vzzh3E+T0ehLYNT6Qs9Y8uLv5zjwNhU1ESISwfBZpE4l8PoWKkFInaACoRQhCU/zJ3DxgrihGU4/T2qq1BMjYEq4Aw+KWb+AgJUwkji7VlQiMNWAUAXN675V+o0vvjIbVnjg1PJAxspR5Cufz+dNZNRI13PyM5aKS5u3cL14BZ3P3BE3W5sBFPI6SCnm/7YBdTgjLqKRG2VwkRHnVEEQ40LqC8SG2/qq8ks/aVlSMjfZLdRmrM3m6b9xUVl8nkssvGouhHnF2hJ1FaFbLkgIeKvpv6pUTOzMgy8D3fViyg5zzsASupbhu3H6lETgUx6GF+dmcTizNp3zaQLwQpbR7uVd8kdToPSKt5vdauXc4LZecx26a3fz4h9l3UBwkRUjIolZetx08L4J2vKb3nHrL9XhJXRnInLGXPU9L3iKAcnJX+jmo/GpJVYe0NjukpYJNqJ9wjtoBVDzDhk3oyIytAKqY0m/EjrhTmyqzpmBwh7IBXV1fIh2AAiOrCP8lW4dEkCZmrClxzYAEIh5v5+hc4GiVOI4Qe8q6NCyDU5QplySS3BwWH1eUcr/yw9rz8CySTDq0okmJsCql7iSPV+n/v55InMwKwquHTPj1qF54AStQyK3FH75MMJZtnUoGyqsVO+n1ToXvql39eXaFKub17ECLzyf4JVFdZQZWS741KGZ2ZwJEPCd3XfFXeUEDu9UCEjVNrGAbGZt3qx8hJf0+he6v1Z5+eeubIGrZLmjXANw//9i8JvPmQzPsrzguttQTMhvriLADOghSlCYzSulWYX4oE/nyu2pf1PqQ0zC6mUP4JnR3pRXB7OvycQwiJaD1797guGYbRhCo5HVNW4EsDwT3ezYu1M0puP5DZ6kSxDRvtrLUsL56eJNQwN5sFXOvOCvNi2zos8ZaA/wdWTYjv1iAuYQAAAABJRU5ErkJggg==;" vertex="1" parent="7HoGpTKX7v-v0K9tCKgV-35">
          <mxGeometry x="180" y="39" width="20" height="20" as="geometry" />
        </mxCell>
        <mxCell id="7HoGpTKX7v-v0K9tCKgV-38" value="" style="shape=mxgraph.gcp2.doubleRect;strokeColor=#dddddd;shadow=1;strokeWidth=1;rounded=1;absoluteArcSize=1;arcSize=2;" vertex="1" parent="1">
          <mxGeometry x="1510" y="1600" width="190" height="68" as="geometry" />
        </mxCell>
        <mxCell id="7HoGpTKX7v-v0K9tCKgV-39" value="&lt;font color=&quot;#000000&quot;&gt;Tabela Retorno Canal&lt;/font&gt;&lt;div&gt;BigQuery&lt;/div&gt;" style="editableCssRules=.*;html=1;fontColor=#999999;shape=image;verticalLabelPosition=middle;verticalAlign=middle;labelPosition=right;align=left;spacingLeft=20;part=1;points=[];imageAspect=0;image=data:image/svg+xml,PHN2ZyB4bWxucz0iaHR0cDovL3d3dy53My5vcmcvMjAwMC9zdmciIHhtbG5zOnY9Imh0dHBzOi8vdmVjdGEuaW8vbmFubyIgd2lkdGg9IjIwLjAwMTA0NTIyNzA1MDc4IiBoZWlnaHQ9IjIwLjAwMTA0NTIyNzA1MDc4IiBmaWxsLXJ1bGU9ImV2ZW5vZGQiIHZpZXdCb3g9IjAgMCAyMC4wMDEwNDUyMjcwNTA3OCAyMC4wMDEwNDUyMjcwNTA3OCI+JiN4YTsJPHN0eWxlIHR5cGU9InRleHQvY3NzIj4mI3hhOwkuc3Qwe2ZpbGw6I2FlY2JmYTt9JiN4YTsJLnN0MXtmaWxsOiM2NjlkZjY7fSYjeGE7CS5zdDJ7ZmlsbDojNDI4NWY0O30mI3hhOwk8L3N0eWxlPiYjeGE7CTxwYXRoIGNsYXNzPSJzdDAiIGQ9Ik00LjczIDguODN2Mi42M2E0LjkxIDQuOTEgMCAwIDAgMS43MSAxLjc0VjguODN6Ii8+JiN4YTsJPHBhdGggY2xhc3M9InN0MSIgZD0iTTcuODkgNi40MXY3LjUzQTcuNjIgNy42MiAwIDAgMCA5IDE0YTggOCAwIDAgMCAxIDBWNi40MXoiLz4mI3hhOwk8cGF0aCBjbGFzcz0ic3QwIiBkPSJNMTEuNjQgOS44NnYzLjI5YTUgNSAwIDAgMCAxLjctMS44MlY5Ljg2eiIvPiYjeGE7CTxwYXRoIGNsYXNzPSJzdDIiIGQ9Ik0xNS43NCAxNC4zMmwtMS40MiAxLjQyYS40Mi40MiAwIDAgMCAwIC42bDMuNTQgMy41NGEuNDIuNDIgMCAwIDAgLjU5IDBsMS40My0xLjQzYS40Mi40MiAwIDAgMCAwLS41OWwtMy41NC0zLjU0YS40Mi40MiAwIDAgMC0uNiAwIi8+JiN4YTsJPHBhdGggY2xhc3M9InN0MSIgZD0iTTkgMGE5IDkgMCAxIDAgMCAxOEE5IDkgMCAxIDAgOSAwbTAgMTUuNjlhNi42OCA2LjY4IDAgMCAxIC4wMDctMTMuMzYgNi42OCA2LjY4IDAgMCAxIDQuNzI3IDExLjQwM0E2LjY4IDYuNjggMCAwIDEgOSAxNS42OSIvPiYjeGE7PC9zdmc+;" vertex="1" parent="7HoGpTKX7v-v0K9tCKgV-38">
          <mxGeometry width="30" height="30" relative="1" as="geometry">
            <mxPoint x="15" y="15" as="offset" />
          </mxGeometry>
        </mxCell>
        <mxCell id="7HoGpTKX7v-v0K9tCKgV-58" style="edgeStyle=orthogonalEdgeStyle;rounded=0;orthogonalLoop=1;jettySize=auto;html=1;entryX=0.5;entryY=0;entryDx=0;entryDy=0;" edge="1" parent="1" source="7HoGpTKX7v-v0K9tCKgV-43" target="7HoGpTKX7v-v0K9tCKgV-48">
          <mxGeometry relative="1" as="geometry" />
        </mxCell>
        <mxCell id="7HoGpTKX7v-v0K9tCKgV-60" value="HTTPS" style="edgeLabel;html=1;align=center;verticalAlign=middle;resizable=0;points=[];" vertex="1" connectable="0" parent="7HoGpTKX7v-v0K9tCKgV-58">
          <mxGeometry x="0.209" y="2" relative="1" as="geometry">
            <mxPoint as="offset" />
          </mxGeometry>
        </mxCell>
        <mxCell id="7HoGpTKX7v-v0K9tCKgV-43" value="" style="strokeColor=#dddddd;shadow=1;strokeWidth=1;rounded=1;absoluteArcSize=1;arcSize=2;" vertex="1" parent="1">
          <mxGeometry x="1230" y="1363" width="200" height="60.00000000000003" as="geometry" />
        </mxCell>
        <mxCell id="7HoGpTKX7v-v0K9tCKgV-44" value="&lt;font color=&quot;#000000&quot;&gt;SMS SMPP Adapter&lt;/font&gt;&lt;br&gt;Cloud Run" style="editableCssRules=.*;html=1;fontColor=#999999;shape=image;verticalLabelPosition=middle;verticalAlign=middle;labelPosition=right;align=left;spacingLeft=20;part=1;points=[];imageAspect=0;image=data:image/svg+xml,PHN2ZyB4bWxucz0iaHR0cDovL3d3dy53My5vcmcvMjAwMC9zdmciIHhtbG5zOnY9Imh0dHBzOi8vdmVjdGEuaW8vbmFubyIgd2lkdGg9IjM2NS40NjQ5OTY3NzA0MjQ5MyIgaGVpZ2h0PSIzNzkuMjIyOTk0NDYzNTc3OTUiIHZpZXdCb3g9IjAgMCA5Ni42OTU5OTkxNDU1MDc4MSAxMDAuMzM1OTk4NTM1MTU2MjUiPiYjeGE7PHN0eWxlIHR5cGU9InRleHQvY3NzIj4mI3hhOwkuc3Qwe2ZpbGw6IzQyODVmNDt9JiN4YTsJLnN0MXtmaWxsOiNhZWNiZmE7fSYjeGE7PC9zdHlsZT4mI3hhOwk8cGF0aCBjbGFzcz0ic3QwIiBkPSJNMjkuNzk0IDEwMC4zMzZMNDYuOTIgNTAuMTY4aDQ5Ljc3NnpNMCA5OS42NzFsMTIuOTc2LTQ5LjUwMkgyOS4yMkwxNi44OTcgOTIuMDU0eiIvPiYjeGE7CTxwYXRoIGNsYXNzPSJzdDEiIGQ9Ik0yOS43OTQgMEw0Ni45MiA1MC4xNjhoNDkuNzc2ek0wIC42NjZsMTIuOTc2IDQ5LjUwMkgyOS4yMkwxNi44OTcgOC4yODN6Ii8+JiN4YTs8L3N2Zz4=;" vertex="1" parent="7HoGpTKX7v-v0K9tCKgV-43">
          <mxGeometry width="30" height="30" relative="1" as="geometry">
            <mxPoint x="15" y="15" as="offset" />
          </mxGeometry>
        </mxCell>
        <mxCell id="7HoGpTKX7v-v0K9tCKgV-65" value="" style="shape=image;verticalLabelPosition=bottom;labelBackgroundColor=default;verticalAlign=top;aspect=fixed;imageAspect=0;image=https://www.svgrepo.com/show/355038/golang.svg;" vertex="1" parent="7HoGpTKX7v-v0K9tCKgV-43">
          <mxGeometry x="180" y="40" width="20" height="20" as="geometry" />
        </mxCell>
        <mxCell id="7HoGpTKX7v-v0K9tCKgV-48" value="" style="shape=mxgraph.gcp2.doubleRect;strokeColor=#dddddd;shadow=1;strokeWidth=1;rounded=1;absoluteArcSize=1;arcSize=2;" vertex="1" parent="1">
          <mxGeometry x="1230" y="1600" width="200" height="68" as="geometry" />
        </mxCell>
        <mxCell id="7HoGpTKX7v-v0K9tCKgV-49" value="&lt;font color=&quot;#000000&quot;&gt;Filas de Disparos&lt;br&gt;de SMS&lt;/font&gt;&lt;br&gt;Pub/Sub" style="editableCssRules=.*;html=1;fontColor=#999999;shape=image;verticalLabelPosition=middle;verticalAlign=middle;labelPosition=right;align=left;spacingLeft=20;part=1;points=[];imageAspect=0;image=data:image/svg+xml,PHN2ZyB4bWxucz0iaHR0cDovL3d3dy53My5vcmcvMjAwMC9zdmciIHhtbG5zOnY9Imh0dHBzOi8vdmVjdGEuaW8vbmFubyIgd2lkdGg9IjE4LjMxOTk5OTY5NDgyNDIyIiBoZWlnaHQ9IjIwLjAwMDAwMTkwNzM0ODYzMyIgdmlld0JveD0iMCAwIDE4LjMxOTk5OTY5NDgyNDIyIDIwLjAwMDAwMTkwNzM0ODYzMyI+JiN4YTsJPHN0eWxlIHR5cGU9InRleHQvY3NzIj4mI3hhOwkuc3Qwe2ZpbGw6IzY2OWRmNjt9JiN4YTsJLnN0MXtmaWxsOiM0Mjg1ZjQ7fSYjeGE7CS5zdDJ7ZmlsbDojYWVjYmZhO30mI3hhOwk8L3N0eWxlPiYjeGE7CTxkZWZzPiYjeGE7CQk8ZmlsdGVyIGlkPSJBIiB4PSI0LjY0IiB5PSI0LjE5IiB3aWR0aD0iMTQuNzMiIGhlaWdodD0iMTIuNzYiIGZpbHRlclVuaXRzPSJ1c2VyU3BhY2VPblVzZSIgY29sb3ItaW50ZXJwb2xhdGlvbi1maWx0ZXJzPSJzUkdCIj4mI3hhOwkJCTxmZUZsb29kIGZsb29kLWNvbG9yPSIjZmZmIi8+JiN4YTsJCQk8ZmVCbGVuZCBpbj0iU291cmNlR3JhcGhpYyIvPiYjeGE7CQk8L2ZpbHRlcj4mI3hhOwkJPG1hc2sgaWQ9IkIiIHg9IjQuNjQiIHk9IjQuMTkiIHdpZHRoPSIxNC43MyIgaGVpZ2h0PSIxMi43NiIgbWFza1VuaXRzPSJ1c2VyU3BhY2VPblVzZSI+JiN4YTsJCQk8Y2lyY2xlIGN4PSIxMiIgY3k9IjEyLjIzIiByPSIzLjU4IiBmaWx0ZXI9InVybCgjQSkiLz4mI3hhOwkJPC9tYXNrPiYjeGE7CTwvZGVmcz4mI3hhOwk8ZyBjbGFzcz0ic3QwIj4mI3hhOwkJPGNpcmNsZSBjeD0iMTYuMTMiIGN5PSI2LjIxIiByPSIxLjcyIi8+JiN4YTsJCTxjaXJjbGUgY3g9IjIuMTkiIGN5PSI2LjIxIiByPSIxLjcyIi8+JiN4YTsJCTxjaXJjbGUgY3g9IjkuMTYiIGN5PSIxOC4yOCIgcj0iMS43MiIvPiYjeGE7CTwvZz4mI3hhOwk8ZyBtYXNrPSJ1cmwoI0IpIiB0cmFuc2Zvcm09InRyYW5zbGF0ZSgtMi44NCAtMikiPiYjeGE7CQk8cGF0aCB0cmFuc2Zvcm09Im1hdHJpeCguNSAtLjg3IC44NyAuNSAtNC41OSAyMC41MykiIGQ9Ik0xNC42OSAxMC4yMmgxLjU5djguMDRoLTEuNTl6IiBjbGFzcz0ic3QxIi8+JiN4YTsJCTxwYXRoIHRyYW5zZm9ybT0icm90YXRlKDMzMCA4LjUyMyAxNC4yNDQpIiBkPSJNNC40OSAxMy40NWg4LjA0djEuNTlINC40OXoiIGNsYXNzPSJzdDEiLz4mI3hhOwkJPHBhdGggZD0iTTExLjIgNC4xOWgxLjU5djguMDRIMTEuMnoiIGNsYXNzPSJzdDEiLz4mI3hhOwk8L2c+JiN4YTsJPGcgY2xhc3M9InN0MiI+JiN4YTsJCTxjaXJjbGUgY3g9IjkuMTYiIGN5PSIxMC4yMyIgcj0iMi43OCIvPiYjeGE7CQk8Y2lyY2xlIGN4PSIyLjE5IiBjeT0iMTQuMjUiIHI9IjIuMTkiLz4mI3hhOwkJPGNpcmNsZSBjeD0iMTYuMTMiIGN5PSIxNC4yNSIgcj0iMi4xOSIvPiYjeGE7CQk8Y2lyY2xlIGN4PSI5LjE2IiBjeT0iMi4xOSIgcj0iMi4xOSIvPiYjeGE7CTwvZz4mI3hhOzwvc3ZnPg==;" vertex="1" parent="7HoGpTKX7v-v0K9tCKgV-48">
          <mxGeometry width="27" height="30" relative="1" as="geometry">
            <mxPoint x="16" y="15" as="offset" />
          </mxGeometry>
        </mxCell>
        <mxCell id="7HoGpTKX7v-v0K9tCKgV-50" value="" style="edgeStyle=orthogonalEdgeStyle;rounded=0;orthogonalLoop=1;jettySize=auto;html=1;entryX=0;entryY=0.5;entryDx=0;entryDy=0;" edge="1" parent="1" source="7HoGpTKX7v-v0K9tCKgV-48" target="7HoGpTKX7v-v0K9tCKgV-38">
          <mxGeometry relative="1" as="geometry">
            <mxPoint x="1400" y="1634" as="sourcePoint" />
            <mxPoint x="1470" y="1634" as="targetPoint" />
          </mxGeometry>
        </mxCell>
        <mxCell id="7HoGpTKX7v-v0K9tCKgV-64" value="HTTPS" style="edgeLabel;html=1;align=center;verticalAlign=middle;resizable=0;points=[];" vertex="1" connectable="0" parent="7HoGpTKX7v-v0K9tCKgV-50">
          <mxGeometry x="0.05" y="-2" relative="1" as="geometry">
            <mxPoint as="offset" />
          </mxGeometry>
        </mxCell>
      </root>
    </mxGraphModel>
  </diagram>
</mxfile>
